<?xml version="1.0" encoding="UTF-8" standalone="no"?>
<!-- Created with Inkscape (http://www.inkscape.org/) -->

<svg
   xmlns:dc="http://purl.org/dc/elements/1.1/"
   xmlns:cc="http://creativecommons.org/ns#"
   xmlns:rdf="http://www.w3.org/1999/02/22-rdf-syntax-ns#"
   xmlns:svg="http://www.w3.org/2000/svg"
   xmlns="http://www.w3.org/2000/svg"
   xmlns:sodipodi="http://sodipodi.sourceforge.net/DTD/sodipodi-0.dtd"
   xmlns:inkscape="http://www.inkscape.org/namespaces/inkscape"
   width="2700.3206"
   height="2657.0242"
   viewBox="0 0 714.4598 703.00433"
   version="1.1"
   id="svg8"
   inkscape:version="0.92.1 r15371"
   sodipodi:docname="chat.svg">
  <defs
     id="defs2" />
  <sodipodi:namedview
     id="base"
     pagecolor="#212121"
     bordercolor="#666666"
     borderopacity="1.0"
     inkscape:pageopacity="0"
     inkscape:pageshadow="2"
     inkscape:zoom="0.12374369"
     inkscape:cx="2098.7722"
     inkscape:cy="1110.4163"
     inkscape:document-units="px"
     inkscape:current-layer="layer1"
     showgrid="false"
     showborder="false"
     units="px"
     inkscape:window-width="1440"
     inkscape:window-height="845"
     inkscape:window-x="0"
     inkscape:window-y="27"
     inkscape:window-maximized="1"
     inkscape:snap-intersection-paths="true"
     inkscape:object-paths="true"
     inkscape:snap-global="false"
     fit-margin-top="2"
     fit-margin-left="2"
     fit-margin-bottom="2"
     fit-margin-right="2" />
  <metadata
     id="metadata5">
    <rdf:RDF>
      <cc:Work
         rdf:about="">
        <dc:format>image/svg+xml</dc:format>
        <dc:type
           rdf:resource="http://purl.org/dc/dcmitype/StillImage" />
        <dc:title></dc:title>
      </cc:Work>
    </rdf:RDF>
  </metadata>
  <g
     inkscape:label="Layer 1"
     inkscape:groupmode="layer"
     id="layer1"
     transform="translate(453.48527,125.23783)">
    <g
       id="g8175"
       transform="matrix(1.6966599,0,0,2.2053949,67.057238,-88.834154)"
       inkscape:export-xdpi="0.63999999"
       inkscape:export-ydpi="0.63999999">
      <path
         id="path8157"
         d="m -67.279614,-16.266707 c -84.870926,3.2e-5 -157.044916,35.85059 -176.363396,87.887658 -0.0222,0.01067 -0.0433,0.02078 -0.0656,0.03152 -0.38735,0.186666 -0.77092,0.373616 -1.15083,0.560173 -0.11947,0.05867 -0.25257,0.1235 -0.39791,0.195337 -0.42306,0.209103 -0.84272,0.418674 -1.25935,0.628901 -0.0841,0.04245 -0.19205,0.09637 -0.32298,0.162782 -0.45554,0.231082 -0.90222,0.461532 -1.34152,0.689362 -0.031,0.01606 -0.10298,0.05229 -0.21497,0.110588 -0.48325,0.251513 -0.96234,0.503988 -1.43713,0.75706 -0.0116,0.0062 -0.0533,0.02807 -0.12454,0.06615 -1.57497,0.841226 -3.12386,1.701781 -4.64571,2.580722 -0.002,0.0013 -0.0189,0.0109 -0.0501,0.02894 -0.47646,0.275413 -0.94927,0.552315 -1.41801,0.829924 -0.10711,0.06344 -0.18639,0.111707 -0.23926,0.143145 -0.39357,0.234063 -0.78978,0.471167 -1.18752,0.712618 -0.14837,0.09007 -0.28047,0.171606 -0.39791,0.243395 -0.35097,0.214543 -0.70485,0.431964 -1.06092,0.653706 -0.11782,0.07337 -0.236,0.147625 -0.35501,0.222211 -0.38187,0.239305 -0.76126,0.479517 -1.13792,0.720368 -0.0938,0.05999 -0.1843,0.117734 -0.2713,0.173632 -0.39252,0.252217 -0.7832,0.506209 -1.17254,0.761712 -0.0777,0.05102 -0.15983,0.104955 -0.24598,0.161748 v -5.19e-4 c -0.40682,0.268169 -0.80875,0.536829 -1.20613,0.804603 -0.0223,0.01502 -0.0844,0.05551 -0.185,0.123508 a 6.3506349,6.3506349 0 0 0 0,5.16e-4 c -0.41266,0.279021 -0.81978,0.557829 -1.22215,0.836125 -0.0334,0.02309 -0.0925,0.06339 -0.17621,0.121439 -0.44366,0.307861 -0.88247,0.616463 -1.3162,0.925007 0.12978,-0.09232 0.11763,-0.08414 -0.0362,0.02532 a 6.3506349,6.3506349 0 0 0 -5.3e-4,0 c -24.52753,17.460166 -40.21002,41.035236 -40.20994,67.333356 a 6.3506349,6.3506349 0 0 0 0,0.015 c 0.0879,37.62336 32.20415,70.72606 81.44619,88.15328 a 6.3506349,6.3506349 0 0 0 5.49217,-0.60668 c 1.25412,8.0107 3.7162,15.12496 6.99751,21.74751 6.04262,12.19558 14.3133,22.947 22.41982,37.2644 a 6.3506349,6.3506349 0 0 0 8.70076,2.37091 c 2.90455,-1.67696 2.6363,-2.85322 2.83703,-3.4122 0.20074,-0.55899 0.24667,-0.83905 0.29353,-1.08366 0.0937,-0.48919 0.11844,-0.7766 0.14727,-1.09193 0.0577,-0.63064 0.0889,-1.28024 0.11783,-2.07688 0.0579,-1.59324 0.091,-3.7049 0.10955,-6.21874 0.0372,-5.02766 0.0124,-11.62171 -0.0367,-18.20145 -0.0654,-8.76922 -0.13046,-12.63665 -0.19585,-17.49041 12.23095,2.72415 25.52131,1.84123 31.50867,1.84123 45.59304,-2e-5 86.724247,-11.90137 116.059577,-31.46682 -0.06906,6.51372 -0.151561,12.53196 -0.173632,19.22467 -0.01832,5.55447 -0.0089,10.63382 0.05116,14.41462 0.03004,1.8904 0.071,3.44349 0.135392,4.6576 0.0322,0.60706 0.06464,1.10923 0.134361,1.67742 0.03486,0.28409 0.06473,0.56226 0.193267,1.08469 0.06427,0.26121 0.136136,0.57653 0.392227,1.15393 0.256087,0.5774 0.42923,1.68084 2.661851,2.96984 a 6.3506349,6.3506349 0 0 0 8.700761,-2.37091 C -9.229618,248.40737 0.19397876,236.14714 7.0264445,222.35748 10.942875,214.45313 13.822456,205.96877 15.145329,196.3136 a 6.3506349,6.3506349 0 0 0 6.612516,1.5105 C 77.655763,178.0413 113.88273,140.56331 113.98167,98.19969 a 6.3506349,6.3506349 0 0 0 0,-0.01499 C 113.98177,65.556971 92.621482,36.665619 59.740021,16.343705 26.858563,-3.9782093 -17.918637,-16.266689 -67.279614,-16.266707 Z"
         style="color:#000000;font-style:normal;font-variant:normal;font-weight:normal;font-stretch:normal;font-size:medium;line-height:normal;font-family:sans-serif;font-variant-ligatures:normal;font-variant-position:normal;font-variant-caps:normal;font-variant-numeric:normal;font-variant-alternates:normal;font-feature-settings:normal;text-indent:0;text-align:start;text-decoration:none;text-decoration-line:none;text-decoration-style:solid;text-decoration-color:#000000;letter-spacing:normal;word-spacing:normal;text-transform:none;writing-mode:lr-tb;direction:ltr;text-orientation:mixed;dominant-baseline:auto;baseline-shift:baseline;text-anchor:start;white-space:normal;shape-padding:0;clip-rule:nonzero;display:inline;overflow:visible;visibility:visible;opacity:1;isolation:auto;mix-blend-mode:normal;color-interpolation:sRGB;color-interpolation-filters:linearRGB;solid-color:#000000;solid-opacity:1;vector-effect:none;fill:#68ff6f;fill-opacity:1;fill-rule:nonzero;stroke:none;stroke-width:12.69999981;stroke-linecap:round;stroke-linejoin:round;stroke-miterlimit:4;stroke-dasharray:none;stroke-dashoffset:0;stroke-opacity:1;color-rendering:auto;image-rendering:auto;shape-rendering:auto;text-rendering:auto;enable-background:accumulate"
         inkscape:connector-curvature="0" />
      <g
         id="g8089">
        <path
           sodipodi:nodetypes="scccccccs"
           inkscape:connector-curvature="0"
           id="path8005"
           d="m -146.65462,57.363052 c 84.769209,3.2e-5 153.4881509,42.470784 153.4879839,94.861048 -2.28e-4,52.39008 -68.7190649,94.86056 -153.4879839,94.86059 -7.94974,0 -26.51338,0.82851 -37.95638,-4.15288 0,0 0.78337,52.28498 0,52.73726 -16.67205,-29.44546 -33.04246,-43.24456 -28.90104,-77.57022 l -9.41541,16.30771 c -47.68605,-16.87654 -77.13583,-48.22085 -77.21514,-82.18246 -1.7e-4,-52.390264 68.71877,-94.861016 153.48797,-94.861048 z"
           style="opacity:1;fill:#550022;fill-opacity:1;stroke:none;stroke-width:3.2504766;stroke-linecap:round;stroke-linejoin:round;stroke-miterlimit:4;stroke-dasharray:none;stroke-opacity:1" />
        <path
           style="opacity:1;fill:#2b0011;fill-opacity:1;stroke:none;stroke-width:15.11402321;stroke-linecap:round;stroke-linejoin:round;stroke-miterlimit:4;stroke-dasharray:none;stroke-opacity:1"
           d="m -554.28516,216.80469 c -174.97645,6e-5 -331.85646,47.8807 -438.21875,123.5957 -2.33604,14.52428 -3.53911,29.25395 -3.53906,44.1582 10e-4,243.60269 319.52822,441.08192 713.68555,441.08203 34.659,0 112.70534,3.38729 166.16601,-15.2832 C -27.726806,747.42469 25.825781,665.24673 25.826172,575.33594 25.826803,377.32549 -233.8976,216.80481 -554.28516,216.80469 Z"
           transform="scale(0.26458333)"
           id="path8007"
           inkscape:connector-curvature="0" />
        <path
           style="opacity:1;fill:#ff2a7f;fill-opacity:1;stroke:none;stroke-width:14;stroke-linecap:round;stroke-linejoin:round;stroke-miterlimit:4;stroke-dasharray:none;stroke-opacity:1"
           d="m -254.28516,-37.480469 c -365.10608,1.36e-4 -661.08275,182.924259 -661.08203,408.572269 0.001,225.64722 295.9772,408.57016 661.08203,408.57031 34.24002,0 114.19476,3.56845 163.480472,-17.88672 0,0 -3.374024,225.19459 0,227.14258 C -18.997182,862.0946 51.511215,802.66102 33.673828,654.81836 l 40.552734,70.23828 C 279.61327,652.36835 406.45524,517.36649 406.79688,371.0918 406.79759,145.44379 110.82093,-37.480333 -254.28516,-37.480469 Z"
           transform="scale(0.26458333)"
           id="path7966"
           inkscape:connector-curvature="0"
           sodipodi:nodetypes="scccccccs" />
        <g
           id="g8073"
           transform="matrix(0.96770046,0,0,0.96770046,-6.9000904,-2.6060904)"
           style="stroke:#5a002b;stroke-opacity:1">
          <g
             transform="translate(11.371543)"
             id="g8030"
             style="stroke:#5a002b;stroke-opacity:1">
            <path
               style="fill:none;fill-rule:evenodd;stroke:#5a002b;stroke-width:12.69999981;stroke-linecap:round;stroke-linejoin:round;stroke-miterlimit:4;stroke-dasharray:none;stroke-opacity:1"
               d="M -198.84853,58.061034 H -72.162772"
               id="path8012"
               inkscape:connector-curvature="0" />
            <path
               style="fill:none;fill-rule:evenodd;stroke:#5a002b;stroke-width:12.69999981;stroke-linecap:round;stroke-linejoin:round;stroke-miterlimit:4;stroke-dasharray:none;stroke-opacity:1"
               d="M -41.159506,58.061034 H 51.315749"
               id="path8014"
               inkscape:connector-curvature="0" />
          </g>
          <g
             transform="translate(10.035192,-12.828931)"
             id="g8034"
             style="stroke:#5a002b;stroke-opacity:1">
            <path
               style="fill:none;fill-rule:evenodd;stroke:#5a002b;stroke-width:12.69999981;stroke-linecap:round;stroke-linejoin:round;stroke-miterlimit:4;stroke-dasharray:none;stroke-opacity:1"
               d="M -200.45214,114.18763 H 2.6726951"
               id="path8016"
               inkscape:connector-curvature="0" />
            <path
               style="fill:none;fill-rule:evenodd;stroke:#5a002b;stroke-width:12.69999981;stroke-linecap:round;stroke-linejoin:round;stroke-miterlimit:4;stroke-dasharray:none;stroke-opacity:1"
               d="M 25.657874,114.18763 H 55.592061"
               id="path8018"
               inkscape:connector-curvature="0" />
          </g>
          <g
             transform="translate(0,2.6636368e-6)"
             id="g8039"
             style="stroke:#5a002b;stroke-opacity:1">
            <path
               style="fill:none;fill-rule:evenodd;stroke:#5a002b;stroke-width:12.69999981;stroke-linecap:round;stroke-linejoin:round;stroke-miterlimit:4;stroke-dasharray:none;stroke-opacity:1"
               d="m -194.27976,144.65636 h 56.36869"
               id="path8022"
               inkscape:connector-curvature="0" />
            <path
               style="fill:none;fill-rule:evenodd;stroke:#5a002b;stroke-width:12.69999981;stroke-linecap:round;stroke-linejoin:round;stroke-miterlimit:4;stroke-dasharray:none;stroke-opacity:1"
               d="m -100.22608,144.65636 h 53.988449"
               id="path8024"
               inkscape:connector-curvature="0" />
            <path
               style="fill:none;fill-rule:evenodd;stroke:#5a002b;stroke-width:12.69999981;stroke-linecap:round;stroke-linejoin:round;stroke-miterlimit:4;stroke-dasharray:none;stroke-opacity:1"
               d="M -8.5526353,144.65636 H 69.490065"
               id="path8026"
               inkscape:connector-curvature="0" />
          </g>
        </g>
      </g>
    </g>
  </g>
</svg>
