<?xml version="1.0" encoding="UTF-8" standalone="no"?>
<!-- Created with Inkscape (http://www.inkscape.org/) -->

<svg
   xmlns:dc="http://purl.org/dc/elements/1.1/"
   xmlns:cc="http://creativecommons.org/ns#"
   xmlns:rdf="http://www.w3.org/1999/02/22-rdf-syntax-ns#"
   xmlns:svg="http://www.w3.org/2000/svg"
   xmlns="http://www.w3.org/2000/svg"
   xmlns:xlink="http://www.w3.org/1999/xlink"
   xmlns:sodipodi="http://sodipodi.sourceforge.net/DTD/sodipodi-0.dtd"
   xmlns:inkscape="http://www.inkscape.org/namespaces/inkscape"
   width="1097.1426"
   height="1281.9419"
   viewBox="0 0 290.28563 339.18047"
   version="1.1"
   id="svg8"
   inkscape:version="0.92.1 r15371"
   sodipodi:docname="place.svg">
  <defs
     id="defs2">
    <linearGradient
       inkscape:collect="always"
       id="linearGradient7449">
      <stop
         style="stop-color:#ff1159;stop-opacity:1"
         offset="0"
         id="stop7445" />
      <stop
         style="stop-color:#ff4b82;stop-opacity:1"
         offset="1"
         id="stop7447" />
    </linearGradient>
    <linearGradient
       inkscape:collect="always"
       xlink:href="#linearGradient7449"
       id="linearGradient7455"
       x1="-481.16534"
       y1="26.695848"
       x2="175.05203"
       y2="845.84161"
       gradientUnits="userSpaceOnUse" />
  </defs>
  <sodipodi:namedview
     id="base"
     pagecolor="#212121"
     bordercolor="#666666"
     borderopacity="1.0"
     inkscape:pageopacity="0"
     inkscape:pageshadow="2"
     inkscape:zoom="0.175"
     inkscape:cx="869.93828"
     inkscape:cy="872.57943"
     inkscape:document-units="px"
     inkscape:current-layer="layer1"
     showgrid="false"
     showborder="false"
     units="px"
     inkscape:window-width="1440"
     inkscape:window-height="845"
     inkscape:window-x="0"
     inkscape:window-y="27"
     inkscape:window-maximized="1"
     inkscape:object-paths="false"
     fit-margin-top="2"
     fit-margin-left="2"
     fit-margin-right="2"
     fit-margin-bottom="2" />
  <metadata
     id="metadata5">
    <rdf:RDF>
      <cc:Work
         rdf:about="">
        <dc:format>image/svg+xml</dc:format>
        <dc:type
           rdf:resource="http://purl.org/dc/dcmitype/StillImage" />
        <dc:title></dc:title>
      </cc:Work>
    </rdf:RDF>
  </metadata>
  <g
     inkscape:label="Layer 1"
     inkscape:groupmode="layer"
     id="layer1"
     transform="translate(40.14282,21.090231)">
    <g
       id="g7462"
       inkscape:export-xdpi="96"
       inkscape:export-ydpi="96"
       transform="translate(135.99423,62.100557)">
      <path
         transform="scale(0.26458333)"
         id="path7441"
         d="m -117.14258,-312.42188 c -144.95313,-2.2e-4 -283.98703,57.59055 -386.48437,160.0879 -102.49735,102.497343 -160.08812,241.531235 -160.08789,386.48437 a 18.0018,18.0018 0 0 0 0,0.0215 c 0.20938,172.82142 97.47009,315.73854 216.52343,434.79101 l 273.03516,273.0332 c 31.36519,31.36521 82.662137,31.36521 114.027344,0 L 213.64844,668.21875 c 118.79548,-118.7955 215.51,-261.6375 215.77929,-434.04102 a 18.0018,18.0018 0 0 0 0,-0.0273 C 429.42796,89.197474 371.83871,-49.836693 269.3418,-152.33398 166.84489,-254.83127 27.810211,-312.42156 -117.14258,-312.42188 Z m 0,352.283208 c 74.3783,1.06e-4 134.28757,59.910765 134.287111,134.289062 -1.05e-4,74.37789 -59.909216,134.287 -134.287111,134.28711 -74.37789,-1.1e-4 -134.287,-59.90922 -134.28711,-134.28711 -4.5e-4,-74.378297 59.90882,-134.288952 134.28711,-134.289062 z"
         style="color:#000000;font-style:normal;font-variant:normal;font-weight:normal;font-stretch:normal;font-size:medium;line-height:normal;font-family:sans-serif;font-variant-ligatures:normal;font-variant-position:normal;font-variant-caps:normal;font-variant-numeric:normal;font-variant-alternates:normal;font-feature-settings:normal;text-indent:0;text-align:start;text-decoration:none;text-decoration-line:none;text-decoration-style:solid;text-decoration-color:#000000;letter-spacing:normal;word-spacing:normal;text-transform:none;writing-mode:lr-tb;direction:ltr;text-orientation:mixed;dominant-baseline:auto;baseline-shift:baseline;text-anchor:start;white-space:normal;shape-padding:0;clip-rule:nonzero;display:inline;overflow:visible;visibility:visible;opacity:1;isolation:auto;mix-blend-mode:normal;color-interpolation:sRGB;color-interpolation-filters:linearRGB;solid-color:#000000;solid-opacity:1;vector-effect:none;fill:#2cea69;fill-opacity:1;fill-rule:nonzero;stroke:none;stroke-width:36;stroke-linecap:round;stroke-linejoin:round;stroke-miterlimit:4;stroke-dasharray:none;stroke-dashoffset:0;stroke-opacity:1;color-rendering:auto;image-rendering:auto;shape-rendering:auto;text-rendering:auto;enable-background:accumulate"
         inkscape:connector-curvature="0" />
      <path
         sodipodi:nodetypes="sscscsscssccccc"
         inkscape:connector-curvature="0"
         transform="scale(0.26458333)"
         id="path7407"
         d="m -117.14258,-294.42188 c -140.18615,-2.2e-4 -274.6307,55.68842 -373.75727,154.81499 -99.12658,99.126581 -154.81521,233.571132 -154.81499,373.75728 0.20137,166.06854 93.82325,304.65613 211.25195,422.08399 l 273.03516,273.0332 c 24.53427,24.53427 64.036023,24.53427 88.570308,0 L 200.91992,655.49023 C 318.07071,538.33944 411.16894,399.82643 411.42773,234.15039 411.42795,93.96458 355.73959,-40.479676 256.61343,-139.6062 157.48728,-238.73272 23.04323,-294.42158 -117.14258,-294.42188 Z m 0,316.283612 C -33.036331,21.861854 35.145043,90.043749 35.144524,174.15 c -1.19e-4,84.10579 -68.181309,152.28698 -152.287104,152.2871 -84.10579,-1.3e-4 -152.28697,-68.18131 -152.28709,-152.2871 -5.2e-4,-84.106251 68.18085,-152.288143 152.28709,-152.288268 z"
         style="opacity:1;fill:url(#linearGradient7455);fill-opacity:1;stroke:none;stroke-width:7.5;stroke-linecap:round;stroke-linejoin:round;stroke-miterlimit:4;stroke-dasharray:none;stroke-opacity:1" />
      <path
         sodipodi:nodetypes="csccccc"
         inkscape:connector-curvature="0"
         id="circle7420"
         transform="scale(0.26458333)"
         d="m -117.14258,-294.42188 c -140.18615,-2.2e-4 -274.6307,55.68841 -373.75728,154.81499 -99.12657,99.126578 -154.8152,233.571131 -154.81498,373.75728 0.20137,166.06854 93.71014,304.54218 211.25195,422.08399 v 0 c -281.10263,-375.90653 -8.15301,-962.15525 440.0964729,-936.2009 -40.0405789,-9.7415 -81.5681319,-14.24792 -122.7761629,-14.45536 z"
         style="opacity:0.40400002;fill:#88002e;fill-opacity:1;stroke:none;stroke-width:18.07236481;stroke-linecap:round;stroke-linejoin:round;stroke-miterlimit:4;stroke-dasharray:none;stroke-opacity:1" />
      <path
         inkscape:connector-curvature="0"
         id="path7427"
         d="m -24.848198,223.61944 47.97488,-47.97488"
         style="fill:none;fill-rule:evenodd;stroke:#ffb9cf;stroke-width:9.52499962;stroke-linecap:round;stroke-linejoin:round;stroke-miterlimit:4;stroke-dasharray:none;stroke-opacity:1" />
      <path
         inkscape:connector-curvature="0"
         id="path7429"
         d="m 32.080211,166.15649 12.695301,-12.6953"
         style="fill:none;fill-rule:evenodd;stroke:#ffb9cf;stroke-width:9.52499962;stroke-linecap:round;stroke-linejoin:round;stroke-miterlimit:4;stroke-dasharray:none;stroke-opacity:1" />
    </g>
  </g>
</svg>
